<svg xmlns="http://www.w3.org/2000/svg" version="1.1" xmlns:xlink="http://www.w3.org/1999/xlink" width="1000" height="1000"><g clip-path="url(#SvgjsClipPath1092)"><rect width="1000" height="1000" fill="#009089"></rect><g transform="matrix(1.7578125,0,0,1.7578125,50,50)"><svg xmlns="http://www.w3.org/2000/svg" version="1.1" xmlns:xlink="http://www.w3.org/1999/xlink" width="512" height="512"><svg width="512" height="512" viewBox="0 0 512 512" fill="none" xmlns="http://www.w3.org/2000/svg">
<rect width="512" height="512" fill="#009089"></rect>
<path d="M98.6033 360.362C100.122 312.793 102.426 266.542 115.788 220.865C129.149 175.188 155.072 132.297 193.331 104.027C231.589 75.7565 282.796 63.5875 328.315 77.3693C373.833 91.1511 411.119 132.896 414.29 180.373C417.46 227.849 382.332 276.485 335.282 283.456C302.831 288.268 269.834 274.686 237.304 278.938C192.678 284.776 156.391 328.507 158.882 373.478C160.161 396.603 167.234 426.486 146.933 437.615C131.347 446.159 111.005 433.203 105.184 416.383C99.3759 399.575 98.1637 373.838 98.5899 360.349L98.6033 360.362Z" fill="#FFE52B"></path>
<path d="M193.33 104.026C231.588 75.7561 282.796 63.5876 328.314 77.3694C373.833 91.1512 411.119 132.896 414.29 180.372C417.46 227.849 382.331 276.486 335.281 283.457C302.83 288.268 269.834 274.686 237.304 278.938C192.678 284.776 156.39 328.507 158.882 373.478C160.16 396.603 167.234 426.485 146.933 437.615L146.198 437.999C130.96 445.63 111.542 433.342 105.467 417.168L105.183 416.383C99.3753 399.575 98.1628 373.837 98.5891 360.349L98.6028 360.363C100.098 313.536 102.354 267.988 115.169 223.006L115.788 220.865C129.149 175.188 155.071 132.296 193.33 104.026ZM324.653 89.5873C283.55 77.1425 236.426 88.0205 200.85 114.308C165.299 140.578 140.725 180.847 127.967 224.464C115.114 268.404 112.811 313.163 111.291 360.771L111.235 362.53C110.987 375.86 112.365 398.268 117.175 412.19L117.351 412.68C119.255 417.733 123.47 422.552 128.496 425.319C133.619 428.14 137.884 428.039 140.854 426.412C145.193 424.033 147.796 419.505 148.321 409.381C148.579 404.411 148.274 398.872 147.759 392.77C147.273 387.015 146.538 380.194 146.205 374.187C143.342 322.494 184.496 272.978 235.665 266.284H235.666C253.917 263.898 272.037 266.552 288.051 268.765C304.696 271.065 319.277 272.93 333.428 270.832H333.431C373.229 264.935 404.398 222.799 401.622 181.228C398.853 139.765 365.822 102.052 324.653 89.5873Z" fill="black"></path>
<path d="M346.627 191.187C353.763 168.817 339.102 144.092 313.879 135.962C288.656 127.832 262.424 139.376 255.287 161.745C248.15 184.115 262.811 208.84 288.034 216.97C313.257 225.1 339.49 213.556 346.627 191.187Z" fill="white"></path>
<path d="M312.587 140.013C289.101 132.442 265.592 143.373 259.317 163.044C253.041 182.715 265.841 205.349 289.327 212.919C312.813 220.489 336.321 209.559 342.597 189.888C348.873 170.216 336.073 147.583 312.587 140.013ZM315.171 131.912C342.131 140.602 358.654 167.417 350.656 192.485C342.659 217.553 313.702 229.71 286.742 221.02C259.783 212.33 243.259 185.515 251.257 160.446C259.255 135.378 288.212 123.222 315.171 131.912Z" fill="black"></path>
</svg></svg></g></g><defs><clipPath id="SvgjsClipPath1092"><rect width="1000" height="1000" x="0" y="0" rx="500" ry="500"></rect></clipPath></defs></svg>