<svg width="32" height="32" viewBox="0 0 32 32" fill="none" xmlns="http://www.w3.org/2000/svg">
<path d="M10.4022 2.80712C13.7925 0.353759 18.3301 -0.702285 22.3637 0.493738C26.3973 1.68977 29.7014 5.3125 29.9824 9.43266C30.2633 13.5528 27.1505 17.7737 22.9812 18.3787C20.1056 18.7962 17.1815 17.6175 14.2989 17.9865C10.3444 18.4932 7.1289 22.2883 7.34963 26.191C7.44633 27.9034 8.21232 30.7514 6.25826 31.7741C4.78683 32.5295 3.08637 31.2582 2.59117 29.9144C2.07649 28.4558 1.9691 26.2222 2.00688 25.0516L2.00802 25.0528C2.14083 20.9787 2.37026 16.8846 3.53084 12.9468C4.71412 8.98514 7.00248 5.30053 10.4022 2.80712Z" fill="black"/>
<path d="M11.0007 3.61228C14.1792 1.31423 18.3933 0.359705 22.0764 1.4508C25.7645 2.54338 28.735 5.85104 28.9845 9.50671C29.2346 13.1721 26.4307 16.8857 22.8379 17.4065C21.5648 17.5912 20.2562 17.4266 18.7833 17.2274C17.3606 17.0351 15.7701 16.8077 14.1703 17.0123C9.69284 17.5854 6.09477 21.8276 6.34472 26.2431C6.37405 26.7618 6.43867 27.3473 6.48214 27.851C6.52791 28.3815 6.55565 28.8689 6.53233 29.3089C6.48489 30.2041 6.24642 30.6512 5.80687 30.8869C5.49964 31.0517 5.07896 31.0497 4.60055 30.792C4.11808 30.5321 3.72756 30.0949 3.54064 29.5871C3.04335 28.1786 2.96385 26.5621 3.01221 25.0826C3.14691 20.9539 3.35104 17.0575 4.4954 13.2296C5.6324 9.42641 7.82386 5.90909 11.0007 3.61228Z" fill="#FFE52B"/>
<path d="M21.0939 5.12224C23.4351 5.873 24.8664 8.183 24.1759 10.3364C23.4854 12.4897 20.9776 13.5365 18.6364 12.7857C16.2952 12.035 14.8639 9.72498 15.5544 7.57163C16.245 5.41828 18.7528 4.37147 21.0939 5.12224Z" fill="black"/>
<path d="M16.2044 7.74094C16.7642 5.99537 18.8268 5.02126 20.8719 5.6771C22.9171 6.33294 24.0285 8.32491 23.4688 10.0705C22.909 11.816 20.8464 12.7901 18.8012 12.1343C16.7561 11.4785 15.6446 9.4865 16.2044 7.74094Z" fill="white"/>
</svg>
