<svg width="24" height="24" viewBox="0 0 24 24" fill="none" xmlns="http://www.w3.org/2000/svg">
<g clip-path="url(#clip0_113_155)">
<path d="M16.6875 14.0234C16.5703 13.9844 16.4141 13.9844 16.2969 13.9453C16.4141 13.9844 16.5703 13.9844 16.6875 14.0234ZM12 11.3672C13.0156 9.375 15.7891 5.70312 18.3672 3.86719C20.8281 2.14844 21.8047 2.42188 22.3906 2.73438C23.1328 3.04688 23.25 4.14062 23.25 4.76562C23.25 5.42969 22.8984 10.0781 22.6641 10.8594C21.8828 13.4375 19.1875 14.2969 16.6875 14.0234C16.5703 13.9844 16.4141 13.9844 16.2969 13.9453C16.4141 13.9844 16.5703 13.9844 16.6875 14.0234C20.3594 14.5703 23.25 16.6016 19.2656 20.6641C13.9141 25.3125 12.8984 19.6094 12 16.6016C11.1016 19.6094 9.38281 25.5078 4.65625 20.6641C0.398438 15.8984 3.64062 14.5703 7.3125 14.0234C7.46875 13.9844 7.58594 13.9844 7.70312 13.9453C7.58594 13.9844 7.46875 13.9844 7.3125 14.0234C4.8125 14.2969 2.11719 13.4375 1.33594 10.8594C1.10156 10.0781 0.75 5.42969 0.75 4.76562C0.75 4.14062 0.867188 3.04688 1.60938 2.73438C2.23438 2.42188 3.17188 2.14844 5.63281 3.86719C8.21094 5.70312 10.9844 9.375 12 11.3672Z" fill="white"/>
</g>
<defs>
<clipPath id="clip0_113_155">
<rect width="24" height="24" fill="white"/>
</clipPath>
</defs>
</svg>
