<svg width="24" height="24" viewBox="0 0 24 24" fill="none" xmlns="http://www.w3.org/2000/svg">
<path d="M22 12.5C22 17.6172 18.1719 21.8359 13.2109 22.4219V15.5469H15.9062L16.4922 12.5H13.2109V11.4062C13.2109 9.80469 13.8359 9.17969 15.4766 9.17969C15.9844 9.17969 16.4141 9.17969 16.6484 9.21875V6.44531C16.1797 6.32812 15.0859 6.21094 14.4609 6.21094C11.1406 6.21094 9.57812 7.77344 9.57812 11.1719V12.5H7.50781V15.5469H9.57812V22.2266C5.24219 21.1328 2 17.1875 2 12.5C2 6.99219 6.49219 2.5 12 2.5C17.5078 2.5 22 6.99219 22 12.5Z" fill="white"/>
</svg>
