<svg width="24" height="24" viewBox="0 0 24 24" fill="none" xmlns="http://www.w3.org/2000/svg">
<path d="M12 8.00781C14.5 8.00781 16.4922 10.0391 16.4922 12.5C16.4922 15 14.4609 16.9922 12 16.9922C9.5 16.9922 7.50781 14.9609 7.50781 12.5C7.50781 10 9.53906 8.00781 12 8.00781ZM12 9.57031C10.3594 9.60938 9.07031 10.8984 9.07031 12.5C9.10938 14.1406 10.3984 15.4297 12 15.4297C13.6406 15.3906 14.9297 14.1016 14.9297 12.5C14.8906 10.8594 13.6016 9.57031 12 9.57031ZM15.6328 7.8125C15.6328 8.39844 16.1016 8.86719 16.6875 8.86719C17.2734 8.86719 17.7422 8.39844 17.7422 7.8125C17.7422 7.22656 17.2734 6.79688 16.6875 6.79688C16.1016 6.79688 15.6328 7.22656 15.6328 7.8125ZM20.7109 8.90625C20.7891 10.3516 20.7891 14.6484 20.7109 16.0938C20.6328 17.5 20.3203 18.75 19.3047 19.7656C18.25 20.8203 17.0391 21.1328 15.6328 21.1719C14.1875 21.2891 9.85156 21.2891 8.40625 21.1719C7 21.1328 5.75 20.7812 4.73438 19.7656C3.71875 18.75 3.36719 17.5 3.32812 16.0938C3.25 14.6484 3.25 10.3125 3.32812 8.86719C3.40625 7.5 3.71875 6.25 4.73438 5.23438C5.75 4.17969 7 3.86719 8.40625 3.78906C9.85156 3.71094 14.1875 3.71094 15.6328 3.78906C17.0391 3.86719 18.25 4.17969 19.3047 5.23438C20.3203 6.25 20.6328 7.5 20.7109 8.90625ZM18.8359 17.6562C19.3047 16.5234 19.1875 13.7891 19.1875 12.5C19.1875 11.2109 19.3047 8.47656 18.8359 7.34375C18.5234 6.5625 17.9375 5.97656 17.1562 5.66406C16.0234 5.23438 13.2891 5.3125 12 5.3125C10.75 5.3125 8.01562 5.23438 6.84375 5.66406C6.10156 5.97656 5.47656 6.5625 5.20312 7.34375C4.73438 8.47656 4.85156 11.2109 4.85156 12.5C4.85156 13.7891 4.73438 16.5234 5.20312 17.6562C5.51562 18.4375 6.10156 19.0234 6.84375 19.3359C8.01562 19.7656 10.75 19.6875 12 19.6875C13.2891 19.6875 16.0234 19.7656 17.1562 19.3359C17.9375 19.0234 18.5234 18.4375 18.8359 17.6562Z" fill="white"/>
</svg>
