<svg width="24" height="24" viewBox="0 0 24 24" fill="none" xmlns="http://www.w3.org/2000/svg">
<path d="M19.5 3.75C20.2031 3.75 20.75 4.33594 20.75 5V20C20.75 20.7031 20.2031 21.25 19.5 21.25H4.5C3.79688 21.25 3.25 20.7031 3.25 20V5C3.25 4.33594 3.79688 3.75 4.5 3.75H19.5ZM8.52344 18.75H8.5625V10.3906H5.94531V18.75H8.52344ZM7.23438 6.25C6.41406 6.25 5.75 6.91406 5.75 7.77344C5.75 8.59375 6.41406 9.25781 7.23438 9.25781C8.05469 9.25781 8.75781 8.59375 8.75781 7.77344C8.75781 6.91406 8.05469 6.25 7.23438 6.25ZM18.25 18.75V14.1797C18.25 11.9141 17.7812 10.1953 15.1641 10.1953C13.875 10.1953 13.0547 10.8984 12.7031 11.5234H12.6641V10.3906H10.1641V18.75H12.7812V14.6094C12.7812 13.5156 12.9766 12.4609 14.3047 12.4609C15.6328 12.4609 15.6719 13.7109 15.6719 14.6875V18.75H18.25Z" fill="white"/>
</svg>
