<svg width="24" height="24" viewBox="0 0 24 24" fill="none" xmlns="http://www.w3.org/2000/svg">
<path d="M20.25 2.125C21.0234 2.125 21.625 2.76953 21.625 3.5V20C21.625 20.7734 21.0234 21.375 20.25 21.375H3.75C2.97656 21.375 2.375 20.7734 2.375 20V3.5C2.375 2.76953 2.97656 2.125 3.75 2.125H20.25ZM8.17578 18.625H8.21875V9.42969H5.33984V18.625H8.17578ZM6.75781 4.875C5.85547 4.875 5.125 5.60547 5.125 6.55078C5.125 7.45312 5.85547 8.18359 6.75781 8.18359C7.66016 8.18359 8.43359 7.45312 8.43359 6.55078C8.43359 5.60547 7.66016 4.875 6.75781 4.875ZM18.875 18.625V13.5977C18.875 11.1055 18.3594 9.21484 15.4805 9.21484C14.0625 9.21484 13.1602 9.98828 12.7734 10.6758H12.7305V9.42969H9.98047V18.625H12.8594V14.0703C12.8594 12.8672 13.0742 11.707 14.5352 11.707C15.9961 11.707 16.0391 13.082 16.0391 14.1562V18.625H18.875Z" fill="#F8FAFC"/>
</svg>
