<svg width="24" height="24" viewBox="0 0 24 24" fill="none" xmlns="http://www.w3.org/2000/svg">
<path d="M12 6.80859C14.75 6.80859 16.9414 9.04297 16.9414 11.75C16.9414 14.5 14.707 16.6914 12 16.6914C9.25 16.6914 7.05859 14.457 7.05859 11.75C7.05859 9 9.29297 6.80859 12 6.80859ZM12 8.52734C10.1953 8.57031 8.77734 9.98828 8.77734 11.75C8.82031 13.5547 10.2383 14.9727 12 14.9727C13.8047 14.9297 15.2227 13.5117 15.2227 11.75C15.1797 9.94531 13.7617 8.52734 12 8.52734ZM15.9961 6.59375C15.9961 7.23828 16.5117 7.75391 17.1562 7.75391C17.8008 7.75391 18.3164 7.23828 18.3164 6.59375C18.3164 5.94922 17.8008 5.47656 17.1562 5.47656C16.5117 5.47656 15.9961 5.94922 15.9961 6.59375ZM21.582 7.79688C21.668 9.38672 21.668 14.1133 21.582 15.7031C21.4961 17.25 21.1523 18.625 20.0352 19.7422C18.875 20.9023 17.543 21.2461 15.9961 21.2891C14.4062 21.418 9.63672 21.418 8.04688 21.2891C6.5 21.2461 5.125 20.8594 4.00781 19.7422C2.89062 18.625 2.50391 17.25 2.46094 15.7031C2.375 14.1133 2.375 9.34375 2.46094 7.75391C2.54688 6.25 2.89062 4.875 4.00781 3.75781C5.125 2.59766 6.5 2.25391 8.04688 2.16797C9.63672 2.08203 14.4062 2.08203 15.9961 2.16797C17.543 2.25391 18.875 2.59766 20.0352 3.75781C21.1523 4.875 21.4961 6.25 21.582 7.79688ZM19.5195 17.4219C20.0352 16.1758 19.9062 13.168 19.9062 11.75C19.9062 10.332 20.0352 7.32422 19.5195 6.07812C19.1758 5.21875 18.5312 4.57422 17.6719 4.23047C16.4258 3.75781 13.418 3.84375 12 3.84375C10.625 3.84375 7.61719 3.75781 6.32812 4.23047C5.51172 4.57422 4.82422 5.21875 4.52344 6.07812C4.00781 7.32422 4.13672 10.332 4.13672 11.75C4.13672 13.168 4.00781 16.1758 4.52344 17.4219C4.86719 18.2812 5.51172 18.9258 6.32812 19.2695C7.61719 19.7422 10.625 19.6562 12 19.6562C13.418 19.6562 16.4258 19.7422 17.6719 19.2695C18.5312 18.9258 19.1758 18.2812 19.5195 17.4219Z" fill="#1E293B"/>
</svg>
