<svg width="24" height="24" viewBox="0 0 24 24" fill="none" xmlns="http://www.w3.org/2000/svg">
<g clip-path="url(#clip0_153_941)">
<path d="M17.1562 13.4258C17.0273 13.3828 16.8555 13.3828 16.7266 13.3398C16.8555 13.3828 17.0273 13.3828 17.1562 13.4258ZM12 10.5039C13.1172 8.3125 16.168 4.27344 19.0039 2.25391C21.7109 0.363281 22.7852 0.664062 23.4297 1.00781C24.2461 1.35156 24.375 2.55469 24.375 3.24219C24.375 3.97266 23.9883 9.08594 23.7305 9.94531C22.8711 12.7812 19.9062 13.7266 17.1562 13.4258C17.0273 13.3828 16.8555 13.3828 16.7266 13.3398C16.8555 13.3828 17.0273 13.3828 17.1562 13.4258C21.1953 14.0273 24.375 16.2617 19.9922 20.7305C14.1055 25.8438 12.9883 19.5703 12 16.2617C11.0117 19.5703 9.12109 26.0586 3.92188 20.7305C-0.761719 15.4883 2.80469 14.0273 6.84375 13.4258C7.01562 13.3828 7.14453 13.3828 7.27344 13.3398C7.14453 13.3828 7.01562 13.3828 6.84375 13.4258C4.09375 13.7266 1.12891 12.7812 0.269531 9.94531C0.0117188 9.08594 -0.375 3.97266 -0.375 3.24219C-0.375 2.55469 -0.246094 1.35156 0.570312 1.00781C1.25781 0.664062 2.28906 0.363281 4.99609 2.25391C7.83203 4.27344 10.8828 8.3125 12 10.5039Z" fill="#F8FAFC"/>
</g>
<defs>
<clipPath id="clip0_153_941">
<rect width="24" height="24" fill="white"/>
</clipPath>
</defs>
</svg>
