<svg width="24" height="24" viewBox="0 0 24 24" fill="none" xmlns="http://www.w3.org/2000/svg">
<path d="M23 11.75C23 17.3789 18.7891 22.0195 13.332 22.6641V15.1016H16.2969L16.9414 11.75H13.332V10.5469C13.332 8.78516 14.0195 8.09766 15.8242 8.09766C16.3828 8.09766 16.8555 8.09766 17.1133 8.14062V5.08984C16.5977 4.96094 15.3945 4.83203 14.707 4.83203C11.0547 4.83203 9.33594 6.55078 9.33594 10.2891V11.75H7.05859V15.1016H9.33594V22.4492C4.56641 21.2461 1 16.9062 1 11.75C1 5.69141 5.94141 0.75 12 0.75C18.0586 0.75 23 5.69141 23 11.75Z" fill="#1E293B"/>
</svg>
