<svg width="24" height="24" viewBox="0 0 24 24" fill="none" xmlns="http://www.w3.org/2000/svg">
<path d="M3.62109 3.5H20.3789C21.8398 3.5 23 4.70312 23 6.12109C23 6.16406 23 6.20703 23 6.25V17.25C23 18.7539 21.7539 20 20.25 20H3.75C2.24609 20 1 18.7539 1 17.25V6.25C1 6.20703 1 6.16406 1 6.12109C1 4.70312 2.20312 3.5 3.62109 3.5ZM20.9375 9L14.2773 14.0703C12.9453 15.1016 11.0547 15.1016 9.72266 14.0703L3.0625 9V17.25C3.0625 17.6367 3.36328 17.9375 3.75 17.9375H20.25C20.6367 17.9375 20.9375 17.6367 20.9375 17.25V9ZM3.0625 6.12109C3.0625 6.33594 3.14844 6.50781 3.27734 6.59375L10.9688 12.4375C11.5703 12.8672 12.4297 12.8672 13.0312 12.4375L20.7227 6.59375C20.8516 6.50781 20.9375 6.33594 20.9375 6.12109C20.9375 5.82031 20.6797 5.5625 20.3789 5.5625H3.62109C3.32031 5.5625 3.0625 5.82031 3.0625 6.12109Z" fill="#F8FAFC"/>
</svg>
