<svg width="24" height="24" viewBox="0 0 24 24" fill="none" xmlns="http://www.w3.org/2000/svg">
<path d="M22.2344 7.34375C22.6641 9.02344 22.6641 12.5 22.6641 12.5C22.6641 12.5 22.6641 16.0156 22.2344 17.6953C22 18.5938 21.2578 19.2969 20.3594 19.5703C18.6797 20 12 20 12 20C12 20 5.32031 20 3.67969 19.5703C2.74219 19.2969 2.03906 18.5938 1.76562 17.6953C1.33594 16.0156 1.33594 12.5 1.33594 12.5C1.33594 12.5 1.33594 9.02344 1.76562 7.34375C2.03906 6.40625 2.74219 5.70312 3.67969 5.46875C5.32031 5 12 5 12 5C12 5 18.6797 5 20.3203 5.46875C21.2578 5.70312 22 6.40625 22.2344 7.34375ZM9.8125 15.7031L15.3984 12.5L9.8125 9.33594V15.7031Z" fill="white"/>
</svg>
